<svg xmlns="http://www.w3.org/2000/svg" width="1650" height="590" viewBox="0 0 1650 590">
  <defs>
    <marker id="arrow" viewBox="0 0 10 10" refX="9" refY="5" markerWidth="8" markerHeight="8" orient="auto-start-reverse"><path d="M0,0 L10,5 L0,10 z" fill="#334155"/></marker>
    <linearGradient id="heat" x1="0" x2="1"><stop offset="0%" stop-color="#EFF6FF"/><stop offset="100%" stop-color="#1D4ED8"/></linearGradient>
  </defs>
  <style>
  text{font-family:Inter,Arial,sans-serif;fill:#111827;letter-spacing:0}.title{font-size:30px;font-weight:760}.subtitle{font-size:15px;fill:#475569}.panel-title{font-size:17px;font-weight:760}.label{font-size:14px}.small{font-size:12px;fill:#475569}.tiny{font-size:10px;fill:#64748B}.value{font-size:14px;font-weight:700}.sig{font-size:16px;font-weight:800;fill:#111827}.axis{stroke:#CBD5E1;stroke-width:1}.grid{stroke:#E2E8F0;stroke-width:1}.rule{stroke:#334155;stroke-width:1.8}.card{fill:#FFFFFF;stroke:#CBD5E1;stroke-width:1.2}.soft{fill:#F8FAFC}.shadow{filter:drop-shadow(0 2px 3px rgba(15,23,42,.10))}
  </style><rect width="1650" height="590" fill="#FFFFFF"/>
<text x="44" y="50" class="title">Figure 4. Event-level MAF biology</text>
<text x="44" y="78" class="subtitle">Single 5-fold OOF results. Metrics: macro-AUROC, Spearman r, AUROC. Significance markers show BH-adjusted q-values for declared comparisons.</text>
<text x="44" y="165" class="label">Kucab damage class</text>
<text x="44" y="239" class="label">HRD score</text>
<text x="44" y="313" class="label">HRD33 high/low</text>
<text x="44" y="387" class="label">Cancer type (top 10)</text>
<text x="44" y="461" class="label">Overall survival</text>
<text x="44" y="477" class="label">event</text>
<text x="210" y="110" class="panel-title">Elastic net</text>
<line x1="210" y1="114" x2="210" y2="510" class="grid"/>
<text x="210" y="548" text-anchor="middle" class="tiny">0.00</text>
<line x1="372.5" y1="114" x2="372.5" y2="510" class="grid"/>
<text x="372.5" y="548" text-anchor="middle" class="tiny">0.25</text>
<line x1="535" y1="114" x2="535" y2="510" class="grid"/>
<text x="535" y="548" text-anchor="middle" class="tiny">0.50</text>
<line x1="697.5" y1="114" x2="697.5" y2="510" class="grid"/>
<text x="697.5" y="548" text-anchor="middle" class="tiny">0.75</text>
<line x1="860" y1="114" x2="860" y2="510" class="grid"/>
<text x="860" y="548" text-anchor="middle" class="tiny">1.00</text>
<rect x="210" y="144" width="387.41246130854324" height="12" rx="2" fill="#2F6FDB"><title>Kucab damage class | Elastic net | Mutational signatures: 0.596; q=0.00e+0</title></rect>
<text x="604.4124613085432" y="155" class="tiny">0.60</text>
<rect x="210" y="162" width="367.9915312257925" height="12" rx="2" fill="#159A74"><title>Kucab damage class | Elastic net | Event-level MAF stack: 0.566; q=1.95e-1</title></rect>
<text x="584.9915312257925" y="173" class="tiny">0.57</text>
<rect x="210" y="180" width="362.9866274935755" height="12" rx="2" fill="#D9822B"><title>Kucab damage class | Elastic net | Signatures + MAF stack: 0.558; q=1.95e-1</title></rect>
<text x="579.9866274935755" y="191" class="tiny">0.56</text>
<rect x="210" y="218" width="331.6354865609881" height="12" rx="2" fill="#2F6FDB"><title>HRD score | Elastic net | Mutational signatures: 0.510; q=0.00e+0</title></rect>
<text x="548.635486560988" y="229" class="tiny">0.51</text>
<rect x="210" y="236" width="302.0272698052112" height="12" rx="2" fill="#159A74"><title>HRD score | Elastic net | Event-level MAF stack: 0.465; q=3.36e-1</title></rect>
<text x="519.0272698052112" y="247" class="tiny">0.46</text>
<rect x="210" y="254" width="365.5493451392521" height="12" rx="2" fill="#D9822B"><title>HRD score | Elastic net | Signatures + MAF stack: 0.562; q=1.36e-1</title></rect>
<text x="582.5493451392522" y="265" class="tiny">0.56</text>
<rect x="210" y="292" width="473.45621643948783" height="12" rx="2" fill="#2F6FDB"><title>HRD33 high/low | Elastic net | Mutational signatures: 0.728; q=0.00e+0</title></rect>
<text x="690.4562164394879" y="303" class="tiny">0.73</text>
<rect x="210" y="310" width="475.0206526228831" height="12" rx="2" fill="#159A74"><title>HRD33 high/low | Elastic net | Event-level MAF stack: 0.731; q=9.53e-1</title></rect>
<text x="692.0206526228831" y="321" class="tiny">0.73</text>
<rect x="210" y="328" width="489.75113589425854" height="12" rx="2" fill="#D9822B"><title>HRD33 high/low | Elastic net | Signatures + MAF stack: 0.753; q=3.48e-1</title></rect>
<text x="706.7511358942586" y="339" class="tiny">0.75</text>
<rect x="210" y="366" width="565.2125602964069" height="12" rx="2" fill="#2F6FDB"><title>Cancer type (top 10) | Elastic net | Mutational signatures: 0.870; q=0.00e+0</title></rect>
<text x="782.2125602964069" y="377" class="tiny">0.87</text>
<rect x="210" y="384" width="550.0542455747396" height="12" rx="2" fill="#159A74"><title>Cancer type (top 10) | Elastic net | Event-level MAF stack: 0.846; q=2.24e-2</title></rect>
<text x="767.0542455747396" y="395" class="tiny">0.85 *</text>
<rect x="210" y="402" width="565.9397439663043" height="12" rx="2" fill="#D9822B"><title>Cancer type (top 10) | Elastic net | Signatures + MAF stack: 0.871; q=8.21e-1</title></rect>
<text x="782.9397439663043" y="413" class="tiny">0.87</text>
<rect x="210" y="440" width="373.0828992903675" height="12" rx="2" fill="#2F6FDB"><title>Overall survival event | Elastic net | Mutational signatures: 0.574; q=0.00e+0</title></rect>
<text x="590.0828992903675" y="451" class="tiny">0.57</text>
<rect x="210" y="458" width="370.6573126430308" height="12" rx="2" fill="#159A74"><title>Overall survival event | Elastic net | Event-level MAF stack: 0.570; q=7.41e-1</title></rect>
<text x="587.6573126430308" y="469" class="tiny">0.57</text>
<rect x="210" y="476" width="374.6257805032706" height="12" rx="2" fill="#D9822B"><title>Overall survival event | Elastic net | Signatures + MAF stack: 0.576; q=8.21e-1</title></rect>
<text x="591.6257805032706" y="487" class="tiny">0.58</text>
<text x="930" y="110" class="panel-title">XGBoost</text>
<line x1="930" y1="114" x2="930" y2="510" class="grid"/>
<text x="930" y="548" text-anchor="middle" class="tiny">0.00</text>
<line x1="1092.5" y1="114" x2="1092.5" y2="510" class="grid"/>
<text x="1092.5" y="548" text-anchor="middle" class="tiny">0.25</text>
<line x1="1255" y1="114" x2="1255" y2="510" class="grid"/>
<text x="1255" y="548" text-anchor="middle" class="tiny">0.50</text>
<line x1="1417.5" y1="114" x2="1417.5" y2="510" class="grid"/>
<text x="1417.5" y="548" text-anchor="middle" class="tiny">0.75</text>
<line x1="1580" y1="114" x2="1580" y2="510" class="grid"/>
<text x="1580" y="548" text-anchor="middle" class="tiny">1.00</text>
<rect x="930" y="144" width="423.29626731278603" height="12" rx="2" fill="#2F6FDB"><title>Kucab damage class | XGBoost | Mutational signatures: 0.651; q=0.00e+0</title></rect>
<text x="1360.296267312786" y="155" class="tiny">0.65</text>
<rect x="930" y="162" width="380.2268435897064" height="12" rx="2" fill="#159A74"><title>Kucab damage class | XGBoost | Event-level MAF stack: 0.585; q=2.24e-2</title></rect>
<text x="1317.2268435897063" y="173" class="tiny">0.58 *</text>
<rect x="930" y="180" width="417.71546340834385" height="12" rx="2" fill="#D9822B"><title>Kucab damage class | XGBoost | Signatures + MAF stack: 0.643; q=6.93e-1</title></rect>
<text x="1354.7154634083438" y="191" class="tiny">0.64</text>
<rect x="930" y="218" width="451.04599978014187" height="12" rx="2" fill="#2F6FDB"><title>HRD score | XGBoost | Mutational signatures: 0.694; q=0.00e+0</title></rect>
<text x="1388.0459997801418" y="229" class="tiny">0.69</text>
<rect x="930" y="236" width="467.9426115225836" height="12" rx="2" fill="#159A74"><title>HRD score | XGBoost | Event-level MAF stack: 0.720; q=3.13e-1</title></rect>
<text x="1404.9426115225835" y="247" class="tiny">0.72</text>
<rect x="930" y="254" width="504.01531937527585" height="12" rx="2" fill="#D9822B"><title>HRD score | XGBoost | Signatures + MAF stack: 0.775; q=2.24e-2</title></rect>
<text x="1441.0153193752758" y="265" class="tiny">0.78 *</text>
<rect x="930" y="292" width="574.3236266005782" height="12" rx="2" fill="#2F6FDB"><title>HRD33 high/low | XGBoost | Mutational signatures: 0.884; q=0.00e+0</title></rect>
<text x="1511.3236266005783" y="303" class="tiny">0.88</text>
<rect x="930" y="310" width="562.7271788517141" height="12" rx="2" fill="#159A74"><title>HRD33 high/low | XGBoost | Event-level MAF stack: 0.866; q=2.57e-1</title></rect>
<text x="1499.7271788517141" y="321" class="tiny">0.87</text>
<rect x="930" y="328" width="586.4828583230071" height="12" rx="2" fill="#D9822B"><title>HRD33 high/low | XGBoost | Signatures + MAF stack: 0.902; q=6.59e-2</title></rect>
<text x="1523.4828583230071" y="339" class="tiny">0.90 .</text>
<rect x="930" y="366" width="601.8244665270229" height="12" rx="2" fill="#2F6FDB"><title>Cancer type (top 10) | XGBoost | Mutational signatures: 0.926; q=0.00e+0</title></rect>
<text x="1538.8244665270229" y="377" class="tiny">0.93</text>
<rect x="930" y="384" width="608.8950465120352" height="12" rx="2" fill="#159A74"><title>Cancer type (top 10) | XGBoost | Event-level MAF stack: 0.937; q=2.24e-2</title></rect>
<text x="1545.8950465120352" y="395" class="tiny">0.94 *</text>
<rect x="930" y="402" width="622.524931343389" height="12" rx="2" fill="#D9822B"><title>Cancer type (top 10) | XGBoost | Signatures + MAF stack: 0.958; q=2.24e-2</title></rect>
<text x="1559.524931343389" y="413" class="tiny">0.96 *</text>
<rect x="930" y="440" width="423.56828227629836" height="12" rx="2" fill="#2F6FDB"><title>Overall survival event | XGBoost | Mutational signatures: 0.652; q=0.00e+0</title></rect>
<text x="1360.5682822762983" y="451" class="tiny">0.65</text>
<rect x="930" y="458" width="425.02671565066504" height="12" rx="2" fill="#159A74"><title>Overall survival event | XGBoost | Event-level MAF stack: 0.654; q=7.41e-1</title></rect>
<text x="1362.026715650665" y="469" class="tiny">0.65</text>
<rect x="930" y="476" width="433.6110996858474" height="12" rx="2" fill="#D9822B"><title>Overall survival event | XGBoost | Signatures + MAF stack: 0.667; q=7.79e-5</title></rect>
<text x="1370.6110996858474" y="487" class="tiny">0.67 ***</text>
<rect x="44" y="559" width="14" height="14" rx="2" fill="#2F6FDB"/><text x="65" y="572" class="small">Mutational signatures</text>
<rect x="214" y="559" width="14" height="14" rx="2" fill="#159A74"/><text x="235" y="572" class="small">Event-level MAF stack</text>
<rect x="384" y="559" width="14" height="14" rx="2" fill="#D9822B"/><text x="405" y="572" class="small">Signatures + MAF stack</text></svg>