<svg xmlns="http://www.w3.org/2000/svg" width="1195" height="936" viewBox="0 0 1195 936">
  <defs>
    <marker id="arrow" viewBox="0 0 10 10" refX="9" refY="5" markerWidth="8" markerHeight="8" orient="auto-start-reverse"><path d="M0,0 L10,5 L0,10 z" fill="#334155"/></marker>
    <linearGradient id="heat" x1="0" x2="1"><stop offset="0%" stop-color="#EFF6FF"/><stop offset="100%" stop-color="#1D4ED8"/></linearGradient>
  </defs>
  <style>
  text{font-family:Inter,Arial,sans-serif;fill:#111827;letter-spacing:0}.title{font-size:30px;font-weight:760}.subtitle{font-size:15px;fill:#475569}.panel-title{font-size:17px;font-weight:760}.label{font-size:14px}.small{font-size:12px;fill:#475569}.tiny{font-size:10px;fill:#64748B}.value{font-size:14px;font-weight:700}.sig{font-size:16px;font-weight:800;fill:#111827}.axis{stroke:#CBD5E1;stroke-width:1}.grid{stroke:#E2E8F0;stroke-width:1}.rule{stroke:#334155;stroke-width:1.8}.card{fill:#FFFFFF;stroke:#CBD5E1;stroke-width:1.2}.soft{fill:#F8FAFC}.shadow{filter:drop-shadow(0 2px 3px rgba(15,23,42,.10))}
  </style><rect width="1195" height="936" fill="#FFFFFF"/>
<text x="44" y="50" class="title">Figure 5. Cross-endpoint representation summary</text>
<text x="44" y="78" class="subtitle">Canonical 5-fold OOF values. Figure 5 is faceted by model family, so each cell matches Figures 2-4 exactly.</text>
<text x="319" y="116" class="label" text-anchor="middle">Mutational</text>
<text x="319" y="132" class="label" text-anchor="middle">burden</text>
<text x="495" y="116" class="label" text-anchor="middle">Mutational</text>
<text x="495" y="132" class="label" text-anchor="middle">signatures</text>
<text x="671" y="116" class="label" text-anchor="middle">Event-level</text>
<text x="671" y="132" class="label" text-anchor="middle">MAF stack</text>
<text x="847" y="116" class="label" text-anchor="middle">Signatures +</text>
<text x="847" y="132" class="label" text-anchor="middle">MAF stack</text>
<text x="1023" y="116" class="label" text-anchor="middle">One-hot</text>
<text x="1023" y="132" class="label" text-anchor="middle">sequence KME</text>
<text x="1023" y="148" class="label" text-anchor="middle">v2</text>
<text x="44" y="136" class="panel-title">Elastic net</text>
<text x="44" y="185" class="label">Kucab damage class</text>
<rect x="235" y="154" width="168" height="42" rx="6" fill="rgb(239,246,255)" stroke="#FFFFFF"><title>Kucab damage class | Elastic net | Mutational burden: 0.459; q=0.00e+0</title></rect>
<text x="319" y="181" text-anchor="middle" class="value">0.46</text>
<rect x="411" y="154" width="168" height="42" rx="6" fill="rgb(188,219,254)" stroke="#FFFFFF"><title>Kucab damage class | Elastic net | Mutational signatures: 0.596; q=2.24e-2</title></rect>
<text x="495" y="181" text-anchor="middle" class="value">0.60</text>
<text x="563" y="171" class="sig">*</text>
<rect x="587" y="154" width="168" height="42" rx="6" fill="rgb(199,225,254)" stroke="#FFFFFF"><title>Kucab damage class | Elastic net | Event-level MAF stack: 0.566; q=2.79e-1</title></rect>
<text x="671" y="181" text-anchor="middle" class="value">0.57</text>
<rect x="763" y="154" width="168" height="42" rx="6" fill="rgb(202,226,254)" stroke="#FFFFFF"><title>Kucab damage class | Elastic net | Signatures + MAF stack: 0.558; q=1.55e-1</title></rect>
<text x="847" y="181" text-anchor="middle" class="value">0.56</text>
<rect x="939" y="154" width="168" height="42" rx="6" fill="rgb(180,215,254)" stroke="#FFFFFF"><title>Kucab damage class | Elastic net | One-hot sequence KME v2: 0.618; q=4.42e-1</title></rect>
<text x="1023" y="181" text-anchor="middle" class="value">0.62</text>
<text x="44" y="235" class="label">HRD score</text>
<rect x="235" y="204" width="168" height="42" rx="6" fill="rgb(206,229,254)" stroke="#FFFFFF"><title>HRD score | Elastic net | Mutational burden: 0.548; q=0.00e+0</title></rect>
<text x="319" y="231" text-anchor="middle" class="value">0.55</text>
<rect x="411" y="204" width="168" height="42" rx="6" fill="rgb(220,236,255)" stroke="#FFFFFF"><title>HRD score | Elastic net | Mutational signatures: 0.510; q=3.48e-1</title></rect>
<text x="495" y="231" text-anchor="middle" class="value">0.51</text>
<rect x="587" y="204" width="168" height="42" rx="6" fill="rgb(237,245,255)" stroke="#FFFFFF"><title>HRD score | Elastic net | Event-level MAF stack: 0.465; q=3.76e-1</title></rect>
<text x="671" y="231" text-anchor="middle" class="value">0.46</text>
<rect x="763" y="204" width="168" height="42" rx="6" fill="rgb(201,226,254)" stroke="#FFFFFF"><title>HRD score | Elastic net | Signatures + MAF stack: 0.562; q=1.55e-1</title></rect>
<text x="847" y="231" text-anchor="middle" class="value">0.56</text>
<rect x="939" y="204" width="168" height="42" rx="6" fill="rgb(195,222,254)" stroke="#FFFFFF"><title>HRD score | Elastic net | One-hot sequence KME v2: 0.579; q=2.24e-2</title></rect>
<text x="1023" y="231" text-anchor="middle" class="value">0.58</text>
<text x="1091" y="221" class="sig">*</text>
<text x="44" y="285" class="label">HRD33 high/low</text>
<rect x="235" y="254" width="168" height="42" rx="6" fill="rgb(109,163,247)" stroke="#FFFFFF"><title>HRD33 high/low | Elastic net | Mutational burden: 0.795; q=0.00e+0</title></rect>
<text x="319" y="281" text-anchor="middle" class="value">0.79</text>
<rect x="411" y="254" width="168" height="42" rx="6" fill="rgb(138,189,252)" stroke="#FFFFFF"><title>HRD33 high/low | Elastic net | Mutational signatures: 0.728; q=1.06e-2</title></rect>
<text x="495" y="281" text-anchor="middle" class="value">0.73</text>
<text x="563" y="271" class="sig">*</text>
<rect x="587" y="254" width="168" height="42" rx="6" fill="rgb(137,188,251)" stroke="#FFFFFF"><title>HRD33 high/low | Elastic net | Event-level MAF stack: 0.731; q=9.53e-1</title></rect>
<text x="671" y="281" text-anchor="middle" class="value">0.73</text>
<rect x="763" y="254" width="168" height="42" rx="6" fill="rgb(127,179,250)" stroke="#FFFFFF"><title>HRD33 high/low | Elastic net | Signatures + MAF stack: 0.753; q=3.48e-1</title></rect>
<text x="847" y="281" text-anchor="middle" class="value">0.75</text>
<rect x="939" y="254" width="168" height="42" rx="6" fill="rgb(122,175,249)" stroke="#FFFFFF"><title>HRD33 high/low | Elastic net | One-hot sequence KME v2: 0.764; q=1.40e-1</title></rect>
<text x="1023" y="281" text-anchor="middle" class="value">0.76</text>
<text x="44" y="335" class="label">Cancer type (top 10)</text>
<rect x="235" y="304" width="168" height="42" rx="6" fill="rgb(108,163,247)" stroke="#FFFFFF"><title>Cancer type (top 10) | Elastic net | Mutational burden: 0.796; q=0.00e+0</title></rect>
<text x="319" y="331" text-anchor="middle" class="value">0.80</text>
<rect x="411" y="304" width="168" height="42" rx="6" fill="rgb(76,134,241)" stroke="#FFFFFF"><title>Cancer type (top 10) | Elastic net | Mutational signatures: 0.870; q=2.24e-2</title></rect>
<text x="495" y="331" text-anchor="middle" class="value">0.87</text>
<text x="563" y="321" class="sig">*</text>
<rect x="587" y="304" width="168" height="42" rx="6" fill="rgb(86,143,243)" stroke="#FFFFFF"><title>Cancer type (top 10) | Elastic net | Event-level MAF stack: 0.846; q=2.24e-2</title></rect>
<text x="671" y="331" text-anchor="middle" class="value">0.85</text>
<text x="739" y="321" class="sig">*</text>
<rect x="763" y="304" width="168" height="42" rx="6" fill="rgb(75,133,241)" stroke="#FFFFFF"><title>Cancer type (top 10) | Elastic net | Signatures + MAF stack: 0.871; q=8.07e-1</title></rect>
<text x="847" y="331" text-anchor="middle" class="value">0.87</text>
<rect x="939" y="304" width="168" height="42" rx="6" fill="rgb(80,137,242)" stroke="#FFFFFF"><title>Cancer type (top 10) | Elastic net | One-hot sequence KME v2: 0.861; q=4.17e-2</title></rect>
<text x="1023" y="331" text-anchor="middle" class="value">0.86</text>
<text x="1091" y="321" class="sig">*</text>
<text x="44" y="385" class="label">Overall survival event</text>
<rect x="235" y="354" width="168" height="42" rx="6" fill="rgb(190,220,254)" stroke="#FFFFFF"><title>Overall survival event | Elastic net | Mutational burden: 0.591; q=0.00e+0</title></rect>
<text x="319" y="381" text-anchor="middle" class="value">0.59</text>
<rect x="411" y="354" width="168" height="42" rx="6" fill="rgb(197,223,254)" stroke="#FFFFFF"><title>Overall survival event | Elastic net | Mutational signatures: 0.574; q=3.01e-2</title></rect>
<text x="495" y="381" text-anchor="middle" class="value">0.57</text>
<text x="563" y="371" class="sig">*</text>
<rect x="587" y="354" width="168" height="42" rx="6" fill="rgb(198,224,254)" stroke="#FFFFFF"><title>Overall survival event | Elastic net | Event-level MAF stack: 0.570; q=7.41e-1</title></rect>
<text x="671" y="381" text-anchor="middle" class="value">0.57</text>
<rect x="763" y="354" width="168" height="42" rx="6" fill="rgb(196,223,254)" stroke="#FFFFFF"><title>Overall survival event | Elastic net | Signatures + MAF stack: 0.576; q=8.21e-1</title></rect>
<text x="847" y="381" text-anchor="middle" class="value">0.58</text>
<rect x="939" y="354" width="168" height="42" rx="6" fill="rgb(202,226,254)" stroke="#FFFFFF"><title>Overall survival event | Elastic net | One-hot sequence KME v2: 0.560; q=1.55e-1</title></rect>
<text x="1023" y="381" text-anchor="middle" class="value">0.56</text>
<text x="44" y="514" class="panel-title">XGBoost</text>
<text x="44" y="563" class="label">Kucab damage class</text>
<rect x="235" y="532" width="168" height="42" rx="6" fill="rgb(239,246,255)" stroke="#FFFFFF"><title>Kucab damage class | XGBoost | Mutational burden: 0.459; q=0.00e+0</title></rect>
<text x="319" y="559" text-anchor="middle" class="value">0.46</text>
<rect x="411" y="532" width="168" height="42" rx="6" fill="rgb(168,208,253)" stroke="#FFFFFF"><title>Kucab damage class | XGBoost | Mutational signatures: 0.651; q=2.24e-2</title></rect>
<text x="495" y="559" text-anchor="middle" class="value">0.65</text>
<text x="563" y="549" class="sig">*</text>
<rect x="587" y="532" width="168" height="42" rx="6" fill="rgb(192,221,254)" stroke="#FFFFFF"><title>Kucab damage class | XGBoost | Event-level MAF stack: 0.585; q=2.24e-2</title></rect>
<text x="671" y="559" text-anchor="middle" class="value">0.58</text>
<text x="739" y="549" class="sig">*</text>
<rect x="763" y="532" width="168" height="42" rx="6" fill="rgb(171,210,254)" stroke="#FFFFFF"><title>Kucab damage class | XGBoost | Signatures + MAF stack: 0.643; q=5.69e-1</title></rect>
<text x="847" y="559" text-anchor="middle" class="value">0.64</text>
<rect x="939" y="532" width="168" height="42" rx="6" fill="rgb(176,212,254)" stroke="#FFFFFF"><title>Kucab damage class | XGBoost | One-hot sequence KME v2: 0.630; q=3.69e-1</title></rect>
<text x="1023" y="559" text-anchor="middle" class="value">0.63</text>
<text x="44" y="613" class="label">HRD score</text>
<rect x="235" y="582" width="168" height="42" rx="6" fill="rgb(181,215,254)" stroke="#FFFFFF"><title>HRD score | XGBoost | Mutational burden: 0.615; q=0.00e+0</title></rect>
<text x="319" y="609" text-anchor="middle" class="value">0.61</text>
<rect x="411" y="582" width="168" height="42" rx="6" fill="rgb(152,200,253)" stroke="#FFFFFF"><title>HRD score | XGBoost | Mutational signatures: 0.694; q=2.24e-2</title></rect>
<text x="495" y="609" text-anchor="middle" class="value">0.69</text>
<text x="563" y="599" class="sig">*</text>
<rect x="587" y="582" width="168" height="42" rx="6" fill="rgb(142,192,252)" stroke="#FFFFFF"><title>HRD score | XGBoost | Event-level MAF stack: 0.720; q=2.20e-1</title></rect>
<text x="671" y="609" text-anchor="middle" class="value">0.72</text>
<rect x="763" y="582" width="168" height="42" rx="6" fill="rgb(117,171,248)" stroke="#FFFFFF"><title>HRD score | XGBoost | Signatures + MAF stack: 0.775; q=2.24e-2</title></rect>
<text x="847" y="609" text-anchor="middle" class="value">0.78</text>
<text x="915" y="599" class="sig">*</text>
<rect x="939" y="582" width="168" height="42" rx="6" fill="rgb(152,200,253)" stroke="#FFFFFF"><title>HRD score | XGBoost | One-hot sequence KME v2: 0.695; q=9.85e-1</title></rect>
<text x="1023" y="609" text-anchor="middle" class="value">0.69</text>
<text x="44" y="663" class="label">HRD33 high/low</text>
<rect x="235" y="632" width="168" height="42" rx="6" fill="rgb(95,151,244)" stroke="#FFFFFF"><title>HRD33 high/low | XGBoost | Mutational burden: 0.826; q=0.00e+0</title></rect>
<text x="319" y="659" text-anchor="middle" class="value">0.83</text>
<rect x="411" y="632" width="168" height="42" rx="6" fill="rgb(70,128,240)" stroke="#FFFFFF"><title>HRD33 high/low | XGBoost | Mutational signatures: 0.884; q=2.12e-6</title></rect>
<text x="495" y="659" text-anchor="middle" class="value">0.88</text>
<text x="563" y="649" class="sig">***</text>
<rect x="587" y="632" width="168" height="42" rx="6" fill="rgb(78,135,242)" stroke="#FFFFFF"><title>HRD33 high/low | XGBoost | Event-level MAF stack: 0.866; q=2.57e-1</title></rect>
<text x="671" y="659" text-anchor="middle" class="value">0.87</text>
<rect x="763" y="632" width="168" height="42" rx="6" fill="rgb(61,121,239)" stroke="#FFFFFF"><title>HRD33 high/low | XGBoost | Signatures + MAF stack: 0.902; q=6.59e-2</title></rect>
<text x="847" y="659" text-anchor="middle" class="value">0.90</text>
<text x="915" y="649" class="sig">.</text>
<rect x="939" y="632" width="168" height="42" rx="6" fill="rgb(73,131,241)" stroke="#FFFFFF"><title>HRD33 high/low | XGBoost | One-hot sequence KME v2: 0.876; q=4.42e-1</title></rect>
<text x="1023" y="659" text-anchor="middle" class="value">0.88</text>
<text x="44" y="713" class="label">Cancer type (top 10)</text>
<rect x="235" y="682" width="168" height="42" rx="6" fill="rgb(89,145,244)" stroke="#FFFFFF"><title>Cancer type (top 10) | XGBoost | Mutational burden: 0.840; q=0.00e+0</title></rect>
<text x="319" y="709" text-anchor="middle" class="value">0.84</text>
<rect x="411" y="682" width="168" height="42" rx="6" fill="rgb(51,112,237)" stroke="#FFFFFF"><title>Cancer type (top 10) | XGBoost | Mutational signatures: 0.926; q=2.24e-2</title></rect>
<text x="495" y="709" text-anchor="middle" class="value">0.93</text>
<text x="563" y="699" class="sig">*</text>
<rect x="587" y="682" width="168" height="42" rx="6" fill="rgb(46,107,237)" stroke="#FFFFFF"><title>Cancer type (top 10) | XGBoost | Event-level MAF stack: 0.937; q=2.24e-2</title></rect>
<text x="671" y="709" text-anchor="middle" class="value">0.94</text>
<text x="739" y="699" class="sig">*</text>
<rect x="763" y="682" width="168" height="42" rx="6" fill="rgb(37,99,235)" stroke="#FFFFFF"><title>Cancer type (top 10) | XGBoost | Signatures + MAF stack: 0.958; q=2.24e-2</title></rect>
<text x="847" y="709" text-anchor="middle" class="value">0.96</text>
<text x="915" y="699" class="sig">*</text>
<rect x="939" y="682" width="168" height="42" rx="6" fill="rgb(47,108,237)" stroke="#FFFFFF"><title>Cancer type (top 10) | XGBoost | One-hot sequence KME v2: 0.935; q=2.24e-2</title></rect>
<text x="1023" y="709" text-anchor="middle" class="value">0.93</text>
<text x="1091" y="699" class="sig">*</text>
<text x="44" y="763" class="label">Overall survival event</text>
<rect x="235" y="732" width="168" height="42" rx="6" fill="rgb(178,214,254)" stroke="#FFFFFF"><title>Overall survival event | XGBoost | Mutational burden: 0.623; q=0.00e+0</title></rect>
<text x="319" y="759" text-anchor="middle" class="value">0.62</text>
<rect x="411" y="732" width="168" height="42" rx="6" fill="rgb(168,208,253)" stroke="#FFFFFF"><title>Overall survival event | XGBoost | Mutational signatures: 0.652; q=1.56e-8</title></rect>
<text x="495" y="759" text-anchor="middle" class="value">0.65</text>
<text x="563" y="749" class="sig">***</text>
<rect x="587" y="732" width="168" height="42" rx="6" fill="rgb(167,208,253)" stroke="#FFFFFF"><title>Overall survival event | XGBoost | Event-level MAF stack: 0.654; q=7.41e-1</title></rect>
<text x="671" y="759" text-anchor="middle" class="value">0.65</text>
<rect x="763" y="732" width="168" height="42" rx="6" fill="rgb(162,205,253)" stroke="#FFFFFF"><title>Overall survival event | XGBoost | Signatures + MAF stack: 0.667; q=7.79e-5</title></rect>
<text x="847" y="759" text-anchor="middle" class="value">0.67</text>
<text x="915" y="749" class="sig">***</text>
<rect x="939" y="732" width="168" height="42" rx="6" fill="rgb(168,208,253)" stroke="#FFFFFF"><title>Overall survival event | XGBoost | One-hot sequence KME v2: 0.651; q=9.77e-1</title></rect>
<text x="1023" y="759" text-anchor="middle" class="value">0.65</text>
<rect x="235" y="878" width="240" height="12" fill="url(#heat)"/><text x="235" y="910" class="tiny">lower</text><text x="475" y="910" text-anchor="end" class="tiny">higher</text></svg>