<svg xmlns="http://www.w3.org/2000/svg" width="1880" height="560" viewBox="0 0 1880 560">
  <defs>
    <marker id="arrow" viewBox="0 0 10 10" refX="9" refY="5" markerWidth="8" markerHeight="8" orient="auto-start-reverse"><path d="M0,0 L10,5 L0,10 z" fill="#334155"/></marker>
    <linearGradient id="heat" x1="0" x2="1"><stop offset="0%" stop-color="#EFF6FF"/><stop offset="100%" stop-color="#1D4ED8"/></linearGradient>
  </defs>
  <style>
  text{font-family:Inter,Arial,sans-serif;fill:#111827;letter-spacing:0}.title{font-size:30px;font-weight:760}.subtitle{font-size:15px;fill:#475569}.panel-title{font-size:17px;font-weight:760}.label{font-size:14px}.small{font-size:12px;fill:#475569}.tiny{font-size:10px;fill:#64748B}.value{font-size:14px;font-weight:700}.sig{font-size:16px;font-weight:800;fill:#111827}.axis{stroke:#CBD5E1;stroke-width:1}.grid{stroke:#E2E8F0;stroke-width:1}.rule{stroke:#334155;stroke-width:1.8}.card{fill:#FFFFFF;stroke:#CBD5E1;stroke-width:1.2}.soft{fill:#F8FAFC}.shadow{filter:drop-shadow(0 2px 3px rgba(15,23,42,.10))}
  </style><rect width="1880" height="560" fill="#FFFFFF"/>
<text x="44" y="50" class="title">Figure 3. One-hot sequence KME v2 vs signatures</text>
<text x="44" y="78" class="subtitle">Single 5-fold OOF results. Metrics: macro-AUROC, Spearman r, AUROC. Significance markers show BH-adjusted q-values for declared comparisons.</text>
<text x="44" y="162" class="label">Kucab damage class</text>
<text x="44" y="230" class="label">HRD score</text>
<text x="44" y="298" class="label">HRD33 high/low</text>
<text x="44" y="366" class="label">Cancer type (top 10)</text>
<text x="44" y="434" class="label">Overall survival</text>
<text x="44" y="450" class="label">event</text>
<text x="210" y="110" class="panel-title">Elastic net</text>
<line x1="210" y1="114" x2="210" y2="480" class="grid"/>
<text x="210" y="518" text-anchor="middle" class="tiny">0.00</text>
<line x1="349.25" y1="114" x2="349.25" y2="480" class="grid"/>
<text x="349.25" y="518" text-anchor="middle" class="tiny">0.25</text>
<line x1="488.5" y1="114" x2="488.5" y2="480" class="grid"/>
<text x="488.5" y="518" text-anchor="middle" class="tiny">0.50</text>
<line x1="627.75" y1="114" x2="627.75" y2="480" class="grid"/>
<text x="627.75" y="518" text-anchor="middle" class="tiny">0.75</text>
<line x1="767" y1="114" x2="767" y2="480" class="grid"/>
<text x="767" y="518" text-anchor="middle" class="tiny">1.00</text>
<rect x="210" y="144" width="331.9826783828594" height="12" rx="2" fill="#2F6FDB"><title>Kucab damage class | Elastic net | Mutational signatures: 0.596; q=0.00e+0</title></rect>
<text x="548.9826783828594" y="155" class="tiny">0.60</text>
<rect x="210" y="162" width="344.159540754453" height="12" rx="2" fill="#A855C7"><title>Kucab damage class | Elastic net | One-hot sequence KME v2: 0.618; q=4.22e-1</title></rect>
<text x="561.159540754453" y="173" class="tiny">0.62</text>
<rect x="210" y="212" width="284.18610156072367" height="12" rx="2" fill="#2F6FDB"><title>HRD score | Elastic net | Mutational signatures: 0.510; q=0.00e+0</title></rect>
<text x="501.18610156072367" y="223" class="tiny">0.51</text>
<rect x="210" y="230" width="322.59337078042427" height="12" rx="2" fill="#A855C7"><title>HRD score | Elastic net | One-hot sequence KME v2: 0.579; q=2.24e-2</title></rect>
<text x="539.5933707804243" y="241" class="tiny">0.58 *</text>
<rect x="210" y="280" width="405.71555777968416" height="12" rx="2" fill="#2F6FDB"><title>HRD33 high/low | Elastic net | Mutational signatures: 0.728; q=0.00e+0</title></rect>
<text x="622.7155577796841" y="291" class="tiny">0.73</text>
<rect x="210" y="298" width="425.59672179328317" height="12" rx="2" fill="#A855C7"><title>HRD33 high/low | Elastic net | One-hot sequence KME v2: 0.764; q=1.40e-1</title></rect>
<text x="642.5967217932832" y="309" class="tiny">0.76</text>
<rect x="210" y="348" width="484.3436862847671" height="12" rx="2" fill="#2F6FDB"><title>Cancer type (top 10) | Elastic net | Mutational signatures: 0.870; q=0.00e+0</title></rect>
<text x="701.343686284767" y="359" class="tiny">0.87</text>
<rect x="210" y="366" width="479.69873607826713" height="12" rx="2" fill="#A855C7"><title>Cancer type (top 10) | Elastic net | One-hot sequence KME v2: 0.861; q=2.24e-2</title></rect>
<text x="696.6987360782671" y="377" class="tiny">0.86 *</text>
<rect x="210" y="416" width="319.70334600728415" height="12" rx="2" fill="#2F6FDB"><title>Overall survival event | Elastic net | Mutational signatures: 0.574; q=0.00e+0</title></rect>
<text x="536.7033460072842" y="427" class="tiny">0.57</text>
<rect x="210" y="434" width="311.9777600882126" height="12" rx="2" fill="#A855C7"><title>Overall survival event | Elastic net | One-hot sequence KME v2: 0.560; q=1.55e-1</title></rect>
<text x="528.9777600882126" y="445" class="tiny">0.56</text>
<text x="890" y="110" text-anchor="middle" class="small">KME v2 - signatures</text>
<line x1="890" y1="114" x2="890" y2="480" stroke="#64748B" stroke-width="1.2"/>
<line x1="805" y1="486" x2="805" y2="492" stroke="#64748B"/>
<text x="805" y="518" text-anchor="middle" class="tiny">-0.09</text>
<line x1="890" y1="486" x2="890" y2="492" stroke="#64748B"/>
<text x="890" y="518" text-anchor="middle" class="tiny">0.00</text>
<line x1="975" y1="486" x2="975" y2="492" stroke="#64748B"/>
<text x="975" y="518" text-anchor="middle" class="tiny">0.09</text>
<line x1="890" y1="168" x2="909.9621412842984" y2="168" stroke="#159A74" stroke-width="2.2"/>
<circle cx="909.9621412842984" cy="168" r="4.5" fill="#159A74"><title>Kucab damage class | Elastic net: delta=0.022</title></circle>
<line x1="890" y1="236" x2="952.9629629629629" y2="236" stroke="#159A74" stroke-width="2.2"/>
<circle cx="952.9629629629629" cy="236" r="4.5" fill="#159A74"><title>HRD score | Elastic net: delta=0.069</title></circle>
<line x1="890" y1="304" x2="922.5885628255267" y2="304" stroke="#159A74" stroke-width="2.2"/>
<circle cx="922.5885628255267" cy="304" r="4.5" fill="#159A74"><title>HRD33 high/low | Elastic net: delta=0.036</title></circle>
<line x1="890" y1="372" x2="882.3853001330631" y2="372" stroke="#B23A48" stroke-width="2.2"/>
<circle cx="882.3853001330631" cy="372" r="4.5" fill="#B23A48"><title>Cancer type (top 10) | Elastic net: delta=-0.008</title></circle>
<line x1="890" y1="440" x2="877.3350594829539" y2="440" stroke="#B23A48" stroke-width="2.2"/>
<circle cx="877.3350594829539" cy="440" r="4.5" fill="#B23A48"><title>Overall survival event | Elastic net: delta=-0.014</title></circle>
<text x="1045" y="110" class="panel-title">XGBoost</text>
<line x1="1045" y1="114" x2="1045" y2="480" class="grid"/>
<text x="1045" y="518" text-anchor="middle" class="tiny">0.00</text>
<line x1="1184.25" y1="114" x2="1184.25" y2="480" class="grid"/>
<text x="1184.25" y="518" text-anchor="middle" class="tiny">0.25</text>
<line x1="1323.5" y1="114" x2="1323.5" y2="480" class="grid"/>
<text x="1323.5" y="518" text-anchor="middle" class="tiny">0.50</text>
<line x1="1462.75" y1="114" x2="1462.75" y2="480" class="grid"/>
<text x="1462.75" y="518" text-anchor="middle" class="tiny">0.75</text>
<line x1="1602" y1="114" x2="1602" y2="480" class="grid"/>
<text x="1602" y="518" text-anchor="middle" class="tiny">1.00</text>
<rect x="1045" y="144" width="362.7323398357259" height="12" rx="2" fill="#2F6FDB"><title>Kucab damage class | XGBoost | Mutational signatures: 0.651; q=0.00e+0</title></rect>
<text x="1414.732339835726" y="155" class="tiny">0.65</text>
<rect x="1045" y="162" width="350.69246419019726" height="12" rx="2" fill="#A855C7"><title>Kucab damage class | XGBoost | One-hot sequence KME v2: 0.630; q=2.89e-1</title></rect>
<text x="1402.6924641901974" y="173" class="tiny">0.63</text>
<rect x="1045" y="212" width="386.5117259654446" height="12" rx="2" fill="#2F6FDB"><title>HRD score | XGBoost | Mutational signatures: 0.694; q=0.00e+0</title></rect>
<text x="1438.5117259654446" y="223" class="tiny">0.69</text>
<rect x="1045" y="230" width="386.8863175343614" height="12" rx="2" fill="#A855C7"><title>HRD score | XGBoost | One-hot sequence KME v2: 0.695; q=9.53e-1</title></rect>
<text x="1438.8863175343613" y="241" class="tiny">0.69</text>
<rect x="1045" y="280" width="492.1511692561878" height="12" rx="2" fill="#2F6FDB"><title>HRD33 high/low | XGBoost | Mutational signatures: 0.884; q=0.00e+0</title></rect>
<text x="1544.1511692561878" y="291" class="tiny">0.88</text>
<rect x="1045" y="298" width="487.7798350967496" height="12" rx="2" fill="#A855C7"><title>HRD33 high/low | XGBoost | One-hot sequence KME v2: 0.876; q=4.42e-1</title></rect>
<text x="1539.7798350967496" y="309" class="tiny">0.88</text>
<rect x="1045" y="348" width="515.7172736239258" height="12" rx="2" fill="#2F6FDB"><title>Cancer type (top 10) | XGBoost | Mutational signatures: 0.926; q=0.00e+0</title></rect>
<text x="1567.7172736239258" y="359" class="tiny">0.93</text>
<rect x="1045" y="366" width="520.6036748062644" height="12" rx="2" fill="#A855C7"><title>Cancer type (top 10) | XGBoost | One-hot sequence KME v2: 0.935; q=2.24e-2</title></rect>
<text x="1572.6036748062643" y="377" class="tiny">0.93 *</text>
<rect x="1045" y="416" width="362.96543573522797" height="12" rx="2" fill="#2F6FDB"><title>Overall survival event | XGBoost | Mutational signatures: 0.652; q=0.00e+0</title></rect>
<text x="1414.9654357352279" y="427" class="tiny">0.65</text>
<rect x="1045" y="434" width="362.8659892533716" height="12" rx="2" fill="#A855C7"><title>Overall survival event | XGBoost | One-hot sequence KME v2: 0.651; q=9.77e-1</title></rect>
<text x="1414.8659892533715" y="445" class="tiny">0.65</text>
<text x="1725" y="110" text-anchor="middle" class="small">KME v2 - signatures</text>
<line x1="1725" y1="114" x2="1725" y2="480" stroke="#64748B" stroke-width="1.2"/>
<line x1="1640" y1="486" x2="1640" y2="492" stroke="#64748B"/>
<text x="1640" y="518" text-anchor="middle" class="tiny">-0.09</text>
<line x1="1725" y1="486" x2="1725" y2="492" stroke="#64748B"/>
<text x="1725" y="518" text-anchor="middle" class="tiny">0.00</text>
<line x1="1810" y1="486" x2="1810" y2="492" stroke="#64748B"/>
<text x="1810" y="518" text-anchor="middle" class="tiny">0.09</text>
<line x1="1725" y1="168" x2="1705.2624279270744" y2="168" stroke="#B23A48" stroke-width="2.2"/>
<circle cx="1705.2624279270744" cy="168" r="4.5" fill="#B23A48"><title>Kucab damage class | XGBoost: delta=-0.022</title></circle>
<line x1="1725" y1="236" x2="1725.6140867486577" y2="236" stroke="#159A74" stroke-width="2.2"/>
<circle cx="1725.6140867486577" cy="236" r="4.5" fill="#159A74"><title>HRD score | XGBoost: delta=0.001</title></circle>
<line x1="1725" y1="304" x2="1717.8338526437526" y2="304" stroke="#B23A48" stroke-width="2.2"/>
<circle cx="1717.8338526437526" cy="304" r="4.5" fill="#B23A48"><title>HRD33 high/low | XGBoost: delta=-0.008</title></circle>
<line x1="1725" y1="372" x2="1733.0105225629513" y2="372" stroke="#159A74" stroke-width="2.2"/>
<circle cx="1733.0105225629513" cy="372" r="4.5" fill="#159A74"><title>Cancer type (top 10) | XGBoost: delta=0.009</title></circle>
<line x1="1725" y1="440" x2="1724.8369723939988" y2="440" stroke="#B23A48" stroke-width="2.2"/>
<circle cx="1724.8369723939988" cy="440" r="4.5" fill="#B23A48"><title>Overall survival event | XGBoost: delta=-0.000</title></circle>
<rect x="44" y="529" width="14" height="14" rx="2" fill="#2F6FDB"/><text x="65" y="542" class="small">Mutational signatures</text>
<rect x="214" y="529" width="14" height="14" rx="2" fill="#A855C7"/><text x="235" y="542" class="small">One-hot sequence KME v2</text></svg>